<?xml version="1.0" encoding="utf-8"?>
<!-- Generator: Adobe Illustrator 24.0.2, SVG Export Plug-In . SVG Version: 6.00 Build 0)  -->
<svg version="1.1" id="Layer_1" xmlns="http://www.w3.org/2000/svg" xmlns:xlink="http://www.w3.org/1999/xlink" x="0px" y="0px"
	 viewBox="0 0 1200 400" style="enable-background:new 0 0 1200 400;" xml:space="preserve">
<style type="text/css">
	.st0{fill:#FFFFFF;}
</style>
<g id="logo">
	<g>
		<path class="st0" d="M80.03,236.07c13.03-10.86,30.4-15.93,49.23-15.93c10.13,0,23.89,2.17,31.85,4.34
			c2.17,0.72,3.62,0.72,5.07,0.72c0,4.34,1.45,16.65,2.9,28.23c-0.72,1.45-3.62,1.45-5.07,0.72c-2.9-13.03-10.86-28.23-36.92-28.23
			c-27.51,0-51.4,18.82-51.4,57.91c0,39.82,23.89,62.26,53.57,62.26c23.17,0,34.02-15.93,37.64-27.51c1.45-0.72,3.62-0.72,4.34,0.72
			c-1.45,10.13-5.79,22.44-8.69,26.06c-2.17,0.72-4.34,1.45-6.52,2.17c-3.62,1.45-17.37,4.34-28.96,4.34
			c-16.65,0-31.85-3.62-44.88-13.03c-14.48-10.86-26.06-28.23-26.06-52.85C56.87,265.75,66.28,247.66,80.03,236.07z"/>
	</g>
	<g>
		<path class="st0" d="M190.79,294.71c0-7.24,0-8.69-5.07-11.58l-1.45-1.45c-0.72-0.72-0.72-2.9,0-3.62
			c4.34-1.45,14.48-6.52,18.82-9.41c0.72,0,1.45,0.72,2.17,1.45c-0.72,6.52-0.72,15.93-0.72,23.89v34.75c0,13.75,0,15.93,7.24,16.65
			l3.62,0.72c1.45,0.72,0.72,4.34-0.72,5.07c-5.79-0.72-10.86-0.72-17.37-0.72s-12.31,0-17.37,0.72c-1.45-0.72-1.45-3.62-0.72-5.07
			l3.62-0.72c6.52-0.72,7.24-2.9,7.24-16.65L190.79,294.71L190.79,294.71z M205.27,232.46c0,6.52-4.34,9.41-9.41,9.41
			c-5.79,0-9.41-4.34-9.41-9.41c0-6.52,4.34-10.13,10.13-10.13C201.65,223.04,205.27,227.39,205.27,232.46z"/>
	</g>
	<g>
		<path class="st0" d="M234.22,294.71c0-7.24,0-8.69-5.07-11.58l-1.45-1.45c-0.72-0.72-0.72-2.9,0-3.62
			c4.34-1.45,14.48-6.52,18.1-9.41c0.72,0,1.45,0.72,2.17,1.45c-0.72,4.34-0.72,7.24-0.72,8.69s0.72,2.17,2.17,2.17
			c7.96-5.07,15.93-9.41,25.34-9.41c15.2,0,20.99,10.86,20.99,23.89v32.58c0,13.75,0.72,15.93,7.24,16.65l4.34,0.72
			c1.45,0.72,0.72,4.34-0.72,5.07c-5.79-0.72-10.86-0.72-17.37-0.72s-12.31,0-16.65,0.72c-1.45-0.72-1.45-3.62-0.72-5.07l3.62-0.72
			c6.52-1.45,7.24-2.9,7.24-16.65v-28.23c0-10.86-5.07-18.82-17.37-18.82c-7.24,0-13.03,2.9-15.2,6.52c-2.17,2.9-2.9,5.79-2.9,11.58
			v28.96c0,13.75,0.72,15.2,7.24,16.65l3.62,0.72c1.45,0.72,0.72,4.34-0.72,5.07c-5.07-0.72-10.13-0.72-16.65-0.72
			c-6.52,0-12.31,0-17.37,0.72c-1.45-0.72-1.45-3.62,0-5.07l3.62-0.72c6.52-0.72,7.24-2.9,7.24-16.65V294.71L234.22,294.71z"/>
	</g>
	<g>
		<path class="st0" d="M376.11,274.44c1.45,1.45,2.9,4.34,2.9,7.96c0,3.62-2.17,7.24-4.34,7.24c-0.72,0-1.45-0.72-2.9-1.45
			c-4.34-5.07-10.86-10.13-18.1-10.13c-13.03,0-25.34,10.86-25.34,31.13c0,15.2,10.13,32.58,28.96,32.58
			c10.86,0,15.93-5.07,20.27-11.58c1.45-0.72,2.9,0.72,3.62,2.9c-6.52,14.48-19.55,19.55-30.4,19.55c-9.41,0-18.82-3.62-24.61-9.41
			c-6.52-6.52-10.86-15.93-10.86-28.23c0-20.99,13.75-42.71,44.16-42.71C363.8,271.55,371.04,272.27,376.11,274.44z"/>
	</g>
	<g>
		<path class="st0" d="M397.1,294.71c0-7.24,0-8.69-5.07-11.58l-1.45-1.45c-0.72-0.72-0.72-2.9,0-3.62
			c4.34-1.45,14.48-6.52,18.82-9.41c0.72,0,1.45,0.72,1.45,1.45c-0.72,6.52-0.72,15.93-0.72,23.89v34.75
			c0,13.75,0.72,15.93,7.24,16.65l3.62,0.72c1.45,0.72,0.72,4.34-0.72,5.07c-5.79-0.72-10.86-0.72-17.37-0.72s-12.31,0-17.37,0.72
			c-1.45-0.72-1.45-3.62-0.72-5.07l3.62-0.72c6.52-0.72,7.24-2.9,7.24-16.65L397.1,294.71L397.1,294.71L397.1,294.71z
			 M411.58,232.46c0,6.52-4.34,9.41-9.41,9.41c-5.79,0-9.41-4.34-9.41-9.41c0-6.52,4.34-10.13,10.13-10.13
			C408.69,223.04,411.58,227.39,411.58,232.46z"/>
	</g>
	<g>
		<path class="st0" d="M440.54,294.71c0-7.24,0-8.69-5.07-11.58l-1.45-1.45c-0.72-0.72-0.72-2.9,0-3.62
			c4.34-1.45,14.48-6.52,18.1-9.41c0.72,0,1.45,0.72,2.17,1.45c-0.72,4.34-0.72,7.24-0.72,8.69s0.72,2.17,2.17,2.17
			c7.96-5.07,15.93-9.41,25.34-9.41c15.2,0,20.99,10.86,20.99,23.89v32.58c0,13.75,0.72,15.93,7.24,16.65l4.34,0.72
			c1.45,0.72,0.72,4.34-0.72,5.07c-5.79-0.72-10.86-0.72-17.37-0.72c-6.52,0-12.31,0-16.65,0.72c-1.45-0.72-1.45-3.62-0.72-5.07
			l3.62-0.72c6.52-1.45,7.24-2.9,7.24-16.65v-28.23c0-10.86-5.07-18.82-17.37-18.82c-7.24,0-13.03,2.9-15.2,6.52
			c-2.17,2.9-2.9,5.79-2.9,11.58v28.96c0,13.75,0.72,15.2,7.24,16.65l3.62,0.72c1.45,0.72,0.72,4.34-0.72,5.07
			c-5.07-0.72-10.13-0.72-16.65-0.72c-6.52,0-12.31,0-17.37,0.72c-1.45-0.72-1.45-3.62-0.72-5.07l3.62-0.72
			c6.52-0.72,7.24-2.9,7.24-16.65L440.54,294.71L440.54,294.71z"/>
	</g>
	<g>
		<path class="st0" d="M533.2,294.71c0-7.24,0-8.69-5.07-11.58l-1.45-1.45c-0.72-0.72-0.72-2.9,0-3.62
			c4.34-1.45,14.48-6.52,18.1-9.41c0.72,0,1.45,0.72,2.17,1.45c-0.72,4.34-0.72,7.24-0.72,8.69s0.72,2.17,2.17,2.17
			c7.96-5.07,15.93-9.41,25.34-9.41c15.2,0,20.99,10.86,20.99,23.89v32.58c0,13.75,0.72,15.93,7.24,16.65l4.34,0.72
			c1.45,0.72,0.72,4.34-0.72,5.07c-5.79-0.72-10.86-0.72-17.37-0.72c-6.52,0-12.31,0-16.65,0.72c-1.45-0.72-1.45-3.62-0.72-5.07
			l3.62-0.72c6.52-1.45,7.24-2.9,7.24-16.65v-28.23c0-10.86-5.07-18.82-17.37-18.82c-7.24,0-13.03,2.9-15.2,6.52
			c-2.17,2.9-2.9,5.79-2.9,11.58v28.96c0,13.75,0.72,15.2,7.24,16.65l3.62,0.72c1.45,0.72,0.72,4.34-0.72,5.07
			c-5.07-0.72-10.13-0.72-16.65-0.72c-6.52,0-12.31,0-17.37,0.72c-1.45-0.72-1.45-3.62-0.72-5.07l3.62-0.72
			c6.52-0.72,7.24-2.9,7.24-16.65L533.2,294.71L533.2,294.71z"/>
	</g>
	<g>
		<path class="st0" d="M651.2,309.91c2.9-0.72,2.9-2.9,2.9-5.79v-8.69c0-7.24-2.17-16.65-13.03-16.65c-5.07,0-11.58,2.9-11.58,8.69
			c0,2.9-0.72,5.07-2.17,6.52c-2.9,2.17-7.96,3.62-10.13,3.62c-1.45,0-2.9-0.72-2.9-2.9c0-10.13,20.27-23.89,34.02-23.89
			c13.03,0,19.55,7.96,18.82,22.44l-0.72,33.3c0,8.69,1.45,16.65,8.69,16.65c2.17,0,3.62-0.72,4.34-1.45
			c0.72-0.72,2.17-1.45,2.17-1.45c0.72,0,1.45,1.45,1.45,2.17c0,0.72-6.52,8.69-15.2,8.69c-4.34,0-8.69-1.45-11.58-5.79
			c-0.72-1.45-2.17-2.9-2.9-2.9c-1.45,0-3.62,1.45-7.24,3.62c-4.34,2.17-7.96,5.07-13.03,5.07c-5.07,0-9.41-1.45-13.03-4.34
			c-3.62-2.9-5.79-7.96-5.79-13.75c0-7.24,3.62-11.58,15.2-15.93L651.2,309.91z M640.34,343.21c3.62,0,9.41-2.9,10.86-5.07
			c2.17-2.17,2.17-5.07,2.17-8.69l0.72-11.58c0-2.17-0.72-2.17-2.17-2.17c-0.72,0-4.34,0.72-7.24,2.17
			c-10.86,3.62-15.93,6.52-15.93,14.48C628.76,335.25,630.93,343.21,640.34,343.21z"/>
	</g>
	<g>
		<path class="st0" d="M711.28,282.4c-2.9,0-2.9,0.72-2.9,4.34v35.47c0,10.86,1.45,20.99,13.03,20.99c2.17,0,3.62-0.72,5.07-0.72
			c1.45-0.72,3.62-2.9,4.34-2.9c1.45,0,2.17,2.17,1.45,2.9c-3.62,4.34-10.13,8.69-18.82,8.69c-15.93,0-18.82-9.41-18.82-20.99
			v-43.43c0-5.07,0-5.79-3.62-5.79h-5.07c-0.72-0.72-1.45-2.9-0.72-4.34c5.07-1.45,10.13-4.34,11.58-5.79
			c2.17-2.17,5.79-7.24,7.96-11.58c0.72-0.72,2.9-0.72,3.62,0.72v8.69c0,3.62,0,3.62,3.62,3.62h20.27c2.17,1.45,2.17,7.24,0,7.96
			L711.28,282.4L711.28,282.4L711.28,282.4z"/>
	</g>
	<g>
		<path class="st0" d="M749.65,294.71c0-7.24,0-8.69-5.07-11.58l-1.45-1.45c-0.72-0.72-0.72-2.9,0-3.62
			c4.34-1.45,14.48-6.52,18.82-9.41c0.72,0,1.45,0.72,1.45,1.45c-0.72,6.52-0.72,15.93-0.72,23.89v34.75c0,13.75,0,15.93,7.24,16.65
			l3.62,0.72c1.45,0.72,0.72,4.34-0.72,5.07c-5.79-0.72-10.86-0.72-17.37-0.72c-6.52,0-12.31,0-17.37,0.72
			c-1.45-0.72-1.45-3.62,0-5.07l3.62-0.72c6.52-0.72,7.24-2.9,7.24-16.65L749.65,294.71L749.65,294.71L749.65,294.71z
			 M764.85,232.46c0,6.52-4.34,9.41-9.41,9.41c-5.79,0-9.41-4.34-9.41-9.41c0-6.52,4.34-10.13,10.13-10.13
			C761.23,223.04,764.85,227.39,764.85,232.46z"/>
	</g>
	<g>
		<path class="st0" d="M876.33,352.62c-15.2,0-24.61-5.07-28.23-7.24c-2.17-4.34-4.34-18.1-5.07-26.78
			c0.72-1.45,3.62-1.45,4.34-0.72c2.9,9.41,10.13,28.23,31.13,28.23c15.2,0,22.44-10.86,22.44-21.72c0-8.69-1.45-18.1-15.2-26.78
			l-17.37-11.58c-9.41-6.52-19.55-17.37-19.55-32.58c0-18.1,13.75-32.58,36.92-32.58c5.79,0,12.31,0.72,16.65,2.17
			c2.17,0.72,5.07,1.45,6.52,1.45c1.45,4.34,3.62,15.2,3.62,23.17c-0.72,1.45-3.62,1.45-4.34,0.72
			c-2.17-9.41-7.24-21.72-24.61-21.72c-18.1,0-21.72,12.31-21.72,20.99c0,10.86,8.69,18.82,15.2,23.17l14.48,9.41
			c11.58,7.24,22.44,18.82,22.44,36.92C914.7,338.15,900.22,352.62,876.33,352.62z"/>
	</g>
	<g>
		<path class="st0" d="M950.17,282.4c-2.9,0-3.62,0.72-3.62,4.34v35.47c0,10.86,1.45,20.99,13.03,20.99c2.17,0,3.62-0.72,5.07-0.72
			c1.45-0.72,4.34-2.9,4.34-2.9c1.45,0,2.17,2.17,2.17,2.9c-3.62,4.34-10.13,8.69-18.82,8.69c-15.93,0-18.82-9.41-18.82-20.99
			v-43.43c0-5.07,0-5.79-3.62-5.79h-5.07c-0.72-0.72-1.45-2.9-0.72-4.34c5.07-1.45,10.13-4.34,11.58-5.79
			c2.17-2.17,5.79-7.24,7.96-11.58c0.72-0.72,2.9-0.72,3.62,0.72v8.69c0,3.62,0,3.62,3.62,3.62h20.27c2.17,1.45,1.45,7.24,0,7.96
			L950.17,282.4L950.17,282.4L950.17,282.4z"/>
	</g>
	<g>
		<path class="st0" d="M1013.15,309.91c2.9-0.72,2.9-2.9,2.9-5.79v-8.69c0-7.24-2.17-16.65-13.03-16.65
			c-5.07,0-10.86,2.9-11.58,8.69c0,2.9-0.72,5.07-2.17,6.52c-2.9,2.17-7.96,3.62-10.13,3.62c-1.45,0-2.9-0.72-2.9-2.9
			c0-10.13,20.27-23.89,34.02-23.89c13.03,0,19.55,7.96,18.82,22.44l-1.45,33.3c0,8.69,1.45,16.65,8.69,16.65
			c1.45,0,3.62-0.72,4.34-1.45c0.72-0.72,2.17-1.45,2.17-1.45c0.72,0,1.45,1.45,1.45,2.17c0,0.72-6.52,8.69-15.2,8.69
			c-4.34,0-8.69-1.45-11.58-5.79c-0.72-1.45-2.17-2.9-2.9-2.9c-1.45,0-3.62,1.45-7.24,3.62c-3.62,2.17-7.96,5.07-13.03,5.07
			c-5.07,0-9.41-1.45-13.03-4.34c-3.62-2.9-5.79-7.96-5.79-13.75c0-7.24,3.62-11.58,15.2-15.93L1013.15,309.91z M1002.29,343.21
			c3.62,0,9.41-2.9,10.86-5.07c2.17-2.17,2.17-5.07,2.17-8.69l0.72-11.58c0-2.17-0.72-2.17-1.45-2.17c-1.45,0-4.34,0.72-7.24,2.17
			c-10.86,3.62-15.93,6.52-15.93,14.48C990.71,335.25,992.88,343.21,1002.29,343.21z"/>
	</g>
	<g>
		<path class="st0" d="M1073.96,282.4c-2.9,0-3.62,0.72-3.62,4.34v35.47c0,10.86,1.45,20.99,13.03,20.99c2.17,0,3.62-0.72,5.07-0.72
			c1.45-0.72,4.34-2.9,4.34-2.9c1.45,0,2.17,2.17,2.17,2.9c-3.62,4.34-10.13,8.69-18.82,8.69c-15.93,0-18.82-9.41-18.82-20.99
			v-43.43c0-5.07,0-5.79-3.62-5.79h-5.07c-1.45-0.72-1.45-2.9-0.72-4.34c5.07-1.45,10.13-4.34,11.58-5.79
			c2.17-2.17,5.79-7.24,7.96-11.58c0.72-0.72,2.9-0.72,3.62,0.72v8.69c0,3.62,0,3.62,3.62,3.62h20.27c2.17,1.45,1.45,7.24,0,7.96
			L1073.96,282.4L1073.96,282.4L1073.96,282.4z"/>
	</g>
	<g>
		<path class="st0" d="M1117.39,300.5c-5.07,0-5.07,0.72-5.07,5.07c0,19.55,10.86,35.47,30.4,35.47c5.79,0,10.86-2.17,16.65-9.41
			c1.45-0.72,2.9,0.72,3.62,2.17c-5.79,13.03-18.82,18.1-28.23,18.1c-11.58,0-20.99-5.07-26.06-12.31
			c-5.79-7.24-7.96-16.65-7.96-24.61c0-23.89,14.48-43.43,36.2-43.43c15.93,0,26.06,11.58,26.06,22.44c0,2.9-0.72,4.34-0.72,5.07
			c-0.72,1.45-2.9,1.45-10.86,1.45C1151.42,300.5,1117.39,300.5,1117.39,300.5z M1128.98,294.71c13.75,0,17.37-0.72,18.82-2.17
			c0.72-0.72,0.72-1.45,0.72-3.62c0-5.07-3.62-12.31-13.75-12.31c-10.86,0-20.27,10.13-20.27,16.65c0,0.72,0,0.72,1.45,0.72
			L1128.98,294.71L1128.98,294.71L1128.98,294.71z"/>
	</g>
	<g>
		<path class="st0" d="M823.49,251.28c-31.85-85.42,110.76-97,110.76-97l-24.61,30.4C909.63,184.68,819.87,186.85,823.49,251.28z"/>
	</g>
	<g>
		<path class="st0" d="M915.42,66.68c-138.99,23.89-148.4,108.59-148.4,108.59C766.3,65.23,882.85,44.24,882.85,44.24L915.42,66.68z
			"/>
	</g>
	<g>
		<path class="st0" d="M824.93,271.55c-112.21-89.76,6.52-157.81,6.52-157.81s61.53-38.37,129.58-36.92l34.02,26.78l-26.78,31.85
			c0,0-70.22-5.07-128.13,34.02C839.41,168.75,777.16,208.57,824.93,271.55z"/>
	</g>
</g>
</svg>
