<?xml version="1.0" encoding="utf-8"?>
<!-- Generator: Adobe Illustrator 24.0.2, SVG Export Plug-In . SVG Version: 6.00 Build 0)  -->
<svg version="1.1" id="Layer_1" xmlns="http://www.w3.org/2000/svg" xmlns:xlink="http://www.w3.org/1999/xlink" x="0px" y="0px"
	 viewBox="0 0 1200 692" style="enable-background:new 0 0 1200 692;" xml:space="preserve">
<style type="text/css">
	.st0{fill:#FFFFFF;}
</style>
<g>
	<path class="st0" d="M772.76,363.58c4.21,6.5,97-43.24,141-16.64c0,0,26.98-30.99,12.44-45.72c-17.41-17.79-49.17-6.7-57.97-19.51
		c-38.84-57.2-238.76-6.31-247.94-17.98c-10.52-13.58,58.54-74.42,22.57-107.14c-45.72-41.51-176.39-28.51-286.97-10.52
		c-121.1,19.71-233.4,57.2-232.06,62.18c3.25,11.67,128.95-34.25,268.22-46.49c366.56-32.52,197.05,64.66,204.9,117.47
		c4.59,30.42,46.3-5.36,187.49-2.68c69.06,1.34,47.83,12.05,69.45,23.53c14.16,7.65,72.32-1.34,53.95,25.25
		c0,0-26.02-4.59-55.48,1.15C812.37,334.12,769.32,358.42,772.76,363.58"/>
	<path class="st0" d="M1040.03,562.36h8.42v-21.62h7.27c9.76,0,15.31-6.12,15.31-15.5c0-8.99-4.4-15.31-14.54-15.31h-16.64v52.42
		H1040.03z M1048.26,516.25h5.36c6.7,0,8.99,3.44,8.99,9.18c0,6.7-3.83,8.99-8.42,8.99h-5.93V516.25z M995.64,509.94v36.92
		c0,12.05,5.93,16.45,16.07,16.45c9.95,0,16.07-4.4,16.07-16.45v-36.92h-8.42v37.69c0,6.7-2.68,9.57-7.65,9.57
		c-5.17,0-7.65-2.87-7.65-9.57v-37.69L995.64,509.94L995.64,509.94z M967.52,557.19c-4.97,0-8.99-3.06-8.99-21.24
		c0-17.6,4.02-20.66,8.99-20.66c4.97,0,8.99,3.06,8.99,20.66C976.32,553.94,972.5,557.19,967.52,557.19 M967.52,563.51
		c12.05,0,17.41-8.61,17.41-27.17c0-18.75-5.36-27.36-17.41-27.36c-12.05,0-17.41,8.61-17.41,27.36
		C950.11,554.9,955.28,563.51,967.52,563.51 M916.44,533.28v-17.03h7.08c5.55,0,8.04,2.87,8.04,8.61c0,5.36-3.06,8.61-8.42,8.61
		h-6.7L916.44,533.28z M908.02,562.36h8.42v-22.77h6.89c5.74,0,7.46,2.49,7.65,8.23c0.19,3.83,0,6.7,0.38,9.95
		c0.19,2.1,0.57,3.63,1.34,4.59h9.57c-1.15-0.77-2.3-1.91-2.49-4.59c-0.19-3.25-0.19-7.27-0.38-10.71
		c-0.38-7.27-3.06-10.14-8.23-10.71v-0.19c5.74-0.96,8.8-6.12,8.8-12.82c0-9.76-5.93-13.58-13.2-13.58h-18.56v52.61H908.02z
		 M890.23,562.36h6.31v-27.55h-16.84v6.31h8.8c0,11.48-2.3,16.07-8.8,16.07c-5.74,0-8.42-4.21-8.42-21.24
		c0-16.84,3.25-20.66,9.18-20.66c5.74,0,7.27,4.59,7.27,8.61v1.15h7.84v-0.96c0-4.78-2.1-15.11-15.31-15.11
		c-12.05,0-17.41,8.61-17.41,27.36c0,18.75,4.02,27.17,15.5,27.17c6.12,0,9.18-2.3,11.48-7.08h0.19v5.93L890.23,562.36z
		 M805.29,562.36h28.89v-7.08h-20.66v-16.64h18.75v-7.08h-18.75v-14.54h19.9v-7.08H805.1v52.42H805.29z M786.73,543.61v0.96
		c0,4.78-0.77,12.63-7.84,12.63c-6.12,0-8.99-4.21-8.99-21.24c0-16.84,2.87-20.66,8.99-20.66c5.93-0.19,7.46,5.36,7.46,10.14v0.96
		h8.42v-0.96c0-5.36-0.96-16.45-15.88-16.45c-13.39,0-17.41,8.61-17.41,27.36c0,18.75,4.02,27.17,17.41,27.17
		c12.44,0,16.07-9.18,16.07-18.75v-1.15L786.73,543.61L786.73,543.61z M716.71,562.36h7.84v-40.18h0.19l15.31,40.18h10.14v-52.42
		h-7.84v39.03h-0.19l-15.31-39.03h-10.14V562.36z M668.5,562.36h8.8l3.44-12.82h15.31l3.25,12.82h8.8l-13.77-52.42h-10.71
		L668.5,562.36z M682.08,542.84l6.31-25.83h0.19l5.93,25.83H682.08z M635.59,533.28v-17.03h7.08c5.55,0,8.04,2.87,8.04,8.61
		c0,5.36-3.06,8.61-8.42,8.61h-6.7L635.59,533.28z M627.37,562.36h8.42v-22.77h6.89c5.74,0,7.46,2.49,7.65,8.23
		c0.19,3.83,0,6.7,0.38,9.95c0.19,2.1,0.57,3.63,1.34,4.59h9.37c-1.15-0.77-2.3-1.91-2.49-4.59c-0.19-3.25-0.19-7.27-0.38-10.71
		c-0.38-7.27-3.06-10.14-8.23-10.71v-0.19c5.74-0.96,8.8-6.12,8.8-12.82c0-9.76-5.93-13.58-13.39-13.58h-18.56v52.61H627.37z
		 M582.98,509.94v36.92c0,12.05,5.93,16.45,16.07,16.45c9.95,0,16.07-4.4,16.07-16.45v-36.92h-8.42v37.69c0,6.7-2.68,9.57-7.65,9.57
		c-5.17,0-7.65-2.87-7.65-9.57v-37.69H582.98z M539.55,546.1v1.34c0,7.27,2.87,16.07,15.88,16.07c10.52,0,17.41-4.59,17.41-15.88
		c0-7.27-3.25-11.29-10.71-13.97l-5.74-2.1c-5.55-2.1-7.84-4.4-7.84-8.99c0-5.55,3.44-7.65,7.08-7.65c5.17,0,7.27,2.87,7.27,7.65
		v1.15h8.42v-1.15c0-5.36-1.34-13.77-14.92-13.77c-9.95,0-16.26,5.36-16.26,14.92c0,7.46,3.25,11.48,10.9,14.35l5.74,1.91
		c4.78,1.34,7.46,3.83,7.46,9.37c0,3.83-2.68,7.65-8.04,7.65c-5.74,0-8.61-3.25-8.61-9.57v-1.34H539.55L539.55,546.1z
		 M495.36,562.36h7.84v-40.18h0.19l15.31,40.18h10.14v-52.42H521v39.03h-0.19l-15.31-39.03h-10.14V562.36z M474.7,562.36h8.42
		v-52.42h-8.42V562.36z M213.75,447.76c-9.37,4.02-22.57,6.31-37.31,6.31c-35.58,0-52.42-23.15-52.42-45.92
		c0-27.17,21.62-47.25,52.42-47.25c14.92,0,21.62,5.36,28.12,5.36c2.68,0,4.59-0.77,7.08-3.06h3.06v24.87h-3.06
		c-5.93-13.39-18.94-22.19-33.86-22.19c-20.28,0-31.38,16.26-31.38,43.81c0,28.31,13.39,39.41,31.57,39.41
		c8.99,0,15.88-2.1,15.88-9.37v-13.2c0-5.74-2.49-9.57-10.14-10.9v-2.49h39.6v2.49c-7.27,1.91-9.57,5.17-9.57,13.39V447.76
		L213.75,447.76z M403.34,396.68l-10.9,27.55h22.38L403.34,396.68z M416.92,429.01h-26.78l-3.83,8.99
		c-2.68,6.31-2.1,9.76,6.12,11.86v1.91h-23.91v-1.91c7.27-1.15,10.33-7.46,13.58-15.31l21.62-52.04h10.9l22.96,54.14
		c4.02,9.57,7.46,12.82,13.97,13.2v1.91h-37.5v-1.91c9.37-1.53,9.76-4.02,7.08-10.33L416.92,429.01z M456.33,451.78v-1.91
		c8.04-1.34,9.57-3.63,9.57-10.14v-51.85h-7.65c-8.99,0-14.16,3.44-16.64,11.1h-2.1l0.77-16.26h2.3c0.96,0.38,2.1,0.77,3.44,0.96
		c1.34,0.19,2.87,0.38,4.02,0.38h48.78c2.49,0,5.74-0.38,7.46-1.34h2.3l0.77,16.26h-2.1c-2.49-7.84-7.65-11.1-16.64-11.1h-7.65
		v51.85c0,6.5,2.1,8.99,9.18,10.14v1.91H456.33L456.33,451.78z M253.54,415.62v-27.74h5.17c10.33,0,15.69,4.78,15.69,13.39
		C274.39,412.56,267.89,416.58,253.54,415.62 M363.55,451.78l1.34-16.45h-2.1c-2.49,6.5-6.5,12.63-15.88,12.63h-4.4
		c-7.46,0-10.33-2.3-10.33-8.42v-19.9h13.2c6.12,0,9.57,2.87,10.33,8.61h2.49V407.2h-2.49c-1.53,6.12-4.4,8.42-10.33,8.42h-13.01
		V387.5h14.54c8.42,0,11.29,2.49,13.58,11.29h2.1v-15.11h-57.01v1.91c8.04,1.34,9.57,3.44,9.57,9.37v43.62
		c0,10.14-8.99,13.2-14.73,8.04c-6.7-6.31-14.92-27.74-23.34-29.46v-0.19c10.9-2.68,15.11-9.18,15.11-16.07
		c0-9.57-8.42-17.03-29.27-17.03h-36.35v1.91c8.04,1.34,9.57,3.63,9.57,9.18v45.92c0,5.55-3.44,8.23-9.57,8.8v1.91h36.35v-1.91
		c-6.89-0.96-9.76-3.44-9.76-9.57v-20.85c6.7,0,9.18,0.19,12.63,3.06c5.74,5.17,11.29,20.47,19.51,29.08h78.25L363.55,451.78z
		 M1065.28,477.22h2.3c1.15,0,2.3,0.19,2.3,1.72c0,1.72-1.34,1.72-2.87,1.72h-1.72L1065.28,477.22L1065.28,477.22z M1063.56,486.79
		h1.72v-4.78h1.72l3.06,4.78h1.72l-3.06-4.78c1.53-0.19,2.87-0.96,2.87-3.06c0-2.1-1.15-3.06-3.83-3.06h-4.21V486.79L1063.56,486.79
		z M1057.63,481.43c0,5.36,4.4,9.37,9.57,9.37c5.17,0,9.37-4.02,9.37-9.37c0-5.36-4.21-9.37-9.37-9.37
		C1062.03,472.06,1057.63,476.08,1057.63,481.43 M1059.35,481.43c0-4.4,3.44-8.04,7.84-8.04c4.4,0,7.65,3.44,7.65,8.04
		c0,4.59-3.44,8.04-7.65,8.04C1062.8,489.47,1059.35,486.02,1059.35,481.43 M714.99,416.39c7.65,0,9.76,2.68,10.14,11.48h1.91
		l3.25-15.31h-52.42l-0.38,2.1c7.08,1.34,8.04,3.63,6.7,9.57l-9.37,44.38c-1.53,7.08-3.06,9.37-11.1,11.1l-0.38,1.91h53.38
		l4.78-16.84h-2.1c-3.63,6.5-8.8,12.82-17.22,12.82h-4.02c-6.89,0-8.99-2.3-7.65-8.42l4.21-20.28h12.24c5.74,0,8.23,2.87,7.65,8.8
		h2.3l4.59-21.43h-2.3c-2.68,6.31-5.93,8.61-11.48,8.61h-12.24l6.12-28.7h13.39V416.39z M850.44,412.37h-33.29l-0.38,2.1
		c6.89,1.72,8.04,3.63,6.7,9.76l-9.37,44.19c-1.34,6.7-2.1,9.18-11.1,11.29l-0.38,1.91h33.29l0.38-1.91
		c-6.89-1.72-8.04-3.63-6.7-9.76l9.37-44.38c1.34-6.7,2.49-9.18,11.1-11.1L850.44,412.37z M908.98,465.55
		c-8.8,7.65-16.07,10.9-24.49,10.9c-13.2,0-23.15-8.8-18.17-32.14c3.83-18.37,14.54-30.04,27.36-30.04c11.67,0,18.56,8.04,18.94,22
		h1.91l5.36-25.25h-1.91c-1.72,2.49-3.25,3.44-4.97,3.44c-3.44,0-8.42-4.21-18.75-4.21c-21.24,0-41.32,16.07-45.72,37.31
		c-4.4,20.85,7.65,35.39,28.7,35.39c12.05,0,22-4.4,30.99-13.97L908.98,465.55z"/>
	<path class="st0" d="M507.03,445.47l20.47-35.78l5.93,35.78H507.03z M614.17,458.09l-8.42-45.72H580.3l-0.38,2.1
		c3.44,0.19,6.89,1.91,8.99,4.78l-16.45,45.15c-2.68,7.27-5.74,13.97-9.37,13.77c-3.83,0-6.7-6.7-8.42-16.45l-12.05-70.79h-10.52
		l-39.79,68.11c-5.93,10.33-11.86,18.56-20.85,20.09l-0.57,2.49h28.51l0.57-2.49c-9.18-2.49-8.8-7.08-3.83-15.5l6.89-11.86h31.38
		l2.3,13.58c1.34,8.42,0.38,11.48-11.1,13.58l-0.57,2.49h56.63l0.38-1.91c-7.65-0.57-8.04-6.12-5.17-14.16l14.54-40.75h0.19
		l10.33,56.82h3.06l34.44-56.82h-0.38l-2.1,39.41c-0.57,8.99-3.44,13.39-11.29,15.31l-0.38,1.91h35.2l0.38-1.91
		c-6.5-1.34-8.61-4.78-8.23-10.71l2.87-43.24c0.38-6.31,2.87-9.95,10.14-11.29l0.38-2.1h-24.49L614.17,458.09L614.17,458.09z
		 M758.42,444.7l5.93-28.31h4.78c9.37,0,13.39,4.78,11.48,13.77C778.31,441.45,771.43,445.66,758.42,444.7 M795.53,476.65
		c-4.97-6.31-7.65-28.31-15.11-30.23l-0.57-0.19c10.52-2.87,16.45-9.37,17.98-16.45c2.1-9.76-4.59-17.41-23.72-17.41h-33.48
		l-0.38,2.1c7.08,1.34,8.04,3.63,6.7,9.37l-9.95,46.87c-1.15,5.55-4.78,8.42-10.52,8.8l-0.38,2.1h33.48l0.38-2.1
		c-6.12-0.96-8.04-3.44-6.89-9.76l4.59-21.24c6.12,0,8.42,0.19,10.9,3.25c4.21,5.36,5.93,20.85,11.67,29.84h20.47l0.38-2.1
		C798.21,479.14,796.87,478.37,795.53,476.65 M934.81,453.31l15.88-27.93l4.59,27.93H934.81L934.81,453.31z M1049.59,412.37
		l-0.38,2.1c7.08,1.72,7.65,4.78,5.93,13.2l-6.5,30.99l-30.61-46.3H996.6l-0.38,2.1c2.68,0.57,3.63,1.34,7.84,6.89l-9.76,46.3
		c-1.91,8.42-16.07,21.62-20.47-1.72l-9.37-55.29h-9.95l-31.18,53.19c-4.59,8.04-9.37,14.54-16.26,15.69l-0.38,1.91h22.38l0.38-1.91
		c-7.08-1.91-6.89-5.55-3.06-12.05l5.36-9.18h24.3l1.72,10.52c1.15,6.7,0.19,8.99-8.8,10.71l-0.38,1.91h57.2l0.38-1.91
		c-7.65-1.34-9.57-3.44-7.84-10.9l8.99-42.28l37.88,56.25h2.68l12.05-56.63c1.34-6.12,4.4-10.9,12.44-11.29l0.38-2.1h-23.15
		L1049.59,412.37z"/>
</g>
</svg>
