<?xml version="1.0" encoding="utf-8"?>
<!-- Generator: Adobe Illustrator 24.0.2, SVG Export Plug-In . SVG Version: 6.00 Build 0)  -->
<svg version="1.1" id="Layer_1" xmlns="http://www.w3.org/2000/svg" xmlns:xlink="http://www.w3.org/1999/xlink" x="0px" y="0px"
	 viewBox="0 0 1200 1122" style="enable-background:new 0 0 1200 1122;" xml:space="preserve">
<style type="text/css">
	.st0{fill:#FFFFFF;}
	.st1{font-family:'Arial-BoldMT';}
	.st2{font-size:39.5301px;}
</style>
<g>
	<g>
		<path class="st0" d="M211.84,323.08c0,0,30.47,59.71,59.23,184.75l-5.18,0.79c0,0-34.73-116-69.5-170.09
			C196.39,338.54,184.75,327.82,211.84,323.08z"/>
	</g>
	<g>
		<path class="st0" d="M550.79,247.47c0,0,129.08-35.39,304.88-113.19c0,0,10.98-5.44,12.47,6.06l1.93,11.94
			C870.06,152.29,789.45,188.2,550.79,247.47z"/>
	</g>
	<g>
		<path class="st0" d="M324.68,966.55c0,0,110.11-44.35,315.81-97.64c0,0-183.3,58.31-306.81,119.59c0,0-10.49,5.01-9-7.99V966.55z"
			/>
	</g>
	<g>
		<path class="st0" d="M914.85,539.97c0,0,24.41,144.27,67.79,264.05l9.48-2.11c0,0,10.71-2.54,3.86-15.45
			C995.98,786.45,946.81,679.24,914.85,539.97z"/>
	</g>
	<text transform="matrix(1.0119 0 0 1 1005.5967 871.7734)" class="st0 st1 st2">TM</text>
	<g>
		<g>
			<path class="st0" d="M887.72,452.34c-2.9,0.26-5.62,1.58-8.34,3.77l-7.64,7.55c-3.42,4.22-6.85,9.83-10.1,16.86
				c-4.39,9.13-6.85,17.3-7.11,24.59c-0.35,7.02,0.79,11.15,3.51,12.64c1.67,0.7,3.78,0.53,6.85-0.7c3.42-1.58,7.38-5.27,12.2-11.24
				c6.67-8.25,11.5-17.83,14.23-28.54C895.88,460.59,894.83,452.25,887.72,452.34z"/>
		</g>
		<g>
			<path class="st0" d="M710.95,509.94c4.48-11.42,4.92-20.29,1.14-26.61c-4.3-7.29-12.47-6.5-24.5,2.81l5,48.12
				C700.42,529.61,706.39,521.44,710.95,509.94z"/>
		</g>
		<g>
			<path class="st0" d="M320.33,506.51c-18.75,4.57-35.08,10.36-49.04,17.74c-4.92,2.63-7.33,4.66-7.11,5.97
				c0.26,2.11,3.29,2.46,8.96,1.14c7.42-0.88,23.75-4.92,49.39-11.59l-1.89-13.53L320.33,506.51z"/>
		</g>
		<g>
			<path class="st0" d="M956.47,788.65c-33.02-110.38-51.11-262.02-51.11-262.02c36.97-31.78,30.03-63.93,30.03-63.93
				c-4.74-36.97-39.51-28.8-39.51-28.8c-5.09-54.09-22.74-232.34-23.18-244.81c-0.35-12.38-11.77-6.85-11.77-6.85
				C561.28,286.9,251.71,319.13,251.71,319.13c-15.45,2.46-8.52,13-8.52,13c25.33,55.85,44.21,172.63,44.21,172.63
				c-42.1,10.27-56.24,28.72-56.24,28.72c-19.32,25.81,14.58,33.19,14.58,33.19c20.64,3.86,48.95-7.38,48.95-7.38
				c48.12,290.3,33.5,371.09,33.5,371.09c-1.28,15.01,10.01,9.75,10.01,9.75c306.37-111.69,611.42-137.78,611.42-137.78
				C960.77,801.12,956.47,788.65,956.47,788.65z M627.22,400.88c5.66-3.6,15.5-6.49,29.64-8.43c8.96-1.41,14.93,1.4,17.91,8.17
				c1.14,2.63,1.93,5.97,2.81,10.63l2.11,11.15c1.4,6.23,3.6,23.01,6.5,50.4l0.88,0.7c6.5-4.83,13-8.61,19.67-10.89
				c10.71-3.78,20.37-4.3,28.8-1.58c11.42,4.04,15.81,12.47,12.56,25.03c-2.55,10.62-9.39,22.3-20.81,34.42
				c-11.42,12.38-22.3,21.78-33.1,28.54c-12.56,7.9-22.04,10.1-28.36,6.32c-2.81-1.23-4.39-4.92-4.39-10.45
				c-2.11-49.61-9.13-91.76-21.25-126.09c-2.77-8.69-6.54-13.87-11.68-15.54C626.35,402.72,626.04,401.76,627.22,400.88z
				 M584.95,471.12c14.4-12.03,27.05-19.32,38.33-21.78c11.55-2.37,18.66,2.72,21.03,15.28l0.79,6.49l-0.79,0.53
				c-7.95,1.32-14.93,2.98-20.9,5.18c-18.66,7.73-28.62,15.81-29.94,24.76c-0.57,2.72-0.35,5.44,0.53,7.9
				c1.32,3.25,3.51,5.36,6.58,6.58c4.52,1.67,15.19,4.57,32.54,8.78c10.58,2.64,16.64,6.5,17.52,11.94
				c4.92,12.47-0.62,27.13-16.46,43.47c-10.58,11.77-19.98,20.11-28.32,25.38c-6.76,4.13-14.35,7.38-23.27,9.48
				c-10.45,2.46-19.93-2.63-28.36-15.45l-2.76-4.13c-1.58-2.11-2.24-3.77-2.11-5.01c0.26-1.23,1.01-1.84,2.37-2.02l2.5,0.44
				c0.79,0.7,1.89,1.4,3.51,1.93c8.17,3.43,16.16,2.46,24.19-3.25c7.6-5.62,14.8-12.21,21.78-19.93l8.3-10.8l3.64-7.2
				c1.76-4.83,1.76-8.87,0-11.68c-2.68-4.13-9.44-6.76-19.8-7.82l0.79-0.09c-6.01-0.96-12.78-2.19-20.59-4.3
				c-6.32-1.58-10.32-4.57-12.03-8.78C558.56,501.86,565.54,486.58,584.95,471.12z M427.02,595.81c-4.87,0.53-8.47-2.37-10.62-8.69
				l-3.86-18.53l-8.04-54.18l-39.78,10.1l11.68,71.57l0.53,4.3c0,3.78-7.29,6.32-21.95,7.73l-11.5,0.79l-4.3-2.2
				c-2.19-1.4-4.13-6.76-6.1-15.81l-8.61-56.02l-35.96,9.22c-18.31,5.62-32.67,8.16-42.55,7.38c0,0-10.19,0.44-11.28-8.52
				c-1.05-8.96,7.99-14.31,7.99-14.31c16.86-9.92,42.24-19.4,76.31-28.45l0.75-0.18c-2.46-16.68-5.93-35.12-10.05-55.85
				c-1.01-4.3-3.16-6.76-6.24-7.73l-1.1-0.44l-1.62-0.79c-1.14-0.88-0.75-2.19,1.32-3.78c6.5-5.27,14.75-9.66,25.03-13.35
				c8.47-3.07,15.06-4.65,19.71-4.65c5.31,0,7.86,3.78,7.51,11.59l2.55,34.86c1.28,14.84,2.99,31.35,5.62,49.61l40.13-10.36
				l-5.8-62.52c-0.57-10.36-1.67-16.51-3.16-18.09l-1.98-2.63l-1.32-1.05c-0.53-0.7,0-1.4,1.67-2.37c7.81-4.48,16.77-7.2,26.87-8.25
				c4.87-0.62,8.43,0,10.14,1.58c2.06,1.23,2.72,3.43,2.19,6.67c-1.76,9.57-2.33,26.34-1.76,49.97l1.76,30.12
				c38.02-7.81,67.92-12.11,90.09-13l13.87,0.53c2.15,0.44,3.29,1.4,3.29,2.72c0,1.05-0.53,1.76-1.71,2.2
				c-4.78,2.11-9.7,4.83-14.62,8.43c-16.38,12.73-27.88,27.22-34.86,43.37c-3.82,7.82-5.18,14.14-4.7,19.23
				c0.79,6.41,5.23,5.71,13.39-1.84c11.46-10.36,20.41-25.64,26.56-46.54c1.23-4.22,2.77-6.94,3.95-8.43
				c1.54-1.14,4.26-2.98,8.39-5.44c4.57-2.55,8.96-4.39,12.87-5.27c5.44-1.23,8.12,0.52,8.12,5.71l-2.99,17.21
				c-2.02,12.47-2.99,22.04-2.42,29.07c0.48,11.24,4.35,18.53,11.06,21.6c1.45,0.79,1.97,1.85,1.93,2.72c0,0.7-0.61,1.05-1.58,1.32
				c-19.93,6.32-32.97,0.09-39.34-18.26c-11.28,14.57-23.62,23.09-37.23,25.64c-6.19,1.23-11.72,0.79-16.68-1.4
				c-5.05-2.37-8.91-6.85-11.42-12.82c-6.94-16.07,0.35-35.12,21.6-57.16l-45.75,6.76c3.82,29.15,8.91,53.21,15.45,72.18l1.76,4.21
				c0.75,2.02,0.44,3.43-0.87,4.57C445.55,592.83,438.13,594.94,427.02,595.81z M749.15,670.63c-6.58,26.69-20.11,48.03-40.04,64.46
				c-18.7,15.19-41.18,24.85-67.52,28.8c-25.33,3.77-51.19,2.19-77.58-5.01c-72.36-20.02-110.25-56.11-114.11-108.62
				c-0.31-1.84-0.17-2.98,0.57-3.42l1.84,0.35c41.49,14.31,88.56,14.31,141.16,0c33.41-9.22,62.52-22.48,86.93-39.69
				c19.23-13.61,36.88-30.73,52.86-50.84l2.28-2.72c0.53-1.67,1.67-2.19,2.99-1.67c1.23,0.53,1.23,1.93,0.18,4.04
				c-5.88,14.66-18.44,31.35-38.11,50.05c-24.15,22.66-50.84,39.78-80.43,51.55c-26.3,10.36-55.36,16.51-86.71,18.7
				c-16.55,1.23-31.26,1.14-44.03-0.17l-0.48,0.26c0.96,3.86,3.2,8.17,6.72,13.17c6.23,8.69,15.45,17.3,28.01,25.73
				c15.28,10.63,32.18,18.53,51.28,24.24c35.08,9.75,69.11,7.91,102.3-5.44c34.07-14.23,55.5-41.1,64.28-80.52
				c3.34-15.01,4.57-31,4.04-47.94c-0.53-13.7-2.11-26.69-5.09-38.64c-0.53-2.19,0-3.34,2.11-3.6c0.88-0.18,1.4,0,1.93,0.87
				l1.32,4.04C755.56,607.32,756.7,641.21,749.15,670.63z M798.94,527.5l-0.18,5.88c-0.35,3.34-4.39,5.88-12.12,7.82l-20.02,2.54
				c-7.2,0.09-9.31-3.16-6.15-10.01c5.62-19.85,8.34-37.06,8.25-51.72c0.09-6.32-2.11-10.89-7.02-13.61
				c-1.58-0.88-4.92-1.58-9.83-2.55c-1.67-0.52-2.11-1.58-1.23-3.25c0.7-1.32,2.81-2.72,6.15-4.74c4.22-2.37,8.08-3.6,11.42-3.86
				c10.28-0.53,17.91,3.25,22.83,11.85v0.18l0.53,0.44l0.35-0.44c15.02-19.76,30.47-30.39,46.28-31.61
				c7.99-0.35,12.2,2.63,12.56,8.6c0.35,4.39-0.61,8.26-2.99,11.42c-2.72,4.92-5.44,7.99-8.43,8.78c-0.7,0.44-1.49,0-2.81-1.05
				c-3.86-4.13-7.9-5.53-12.47-4.3c-11.42,3.16-20.55,11.42-27.49,25.2l-0.09,0.97C798.24,495.45,799.11,509.94,798.94,527.5z
				 M852.33,532.42c-17.04,2.11-26.69-3.78-28.63-17.39c-1.05-5.18-0.44-10.97,1.14-16.95c1.67-6.06,4.13-10.97,6.94-14.75
				c12.12-24.41,31.61-39.25,57.95-44.52c10.89-2.37,19.49-1.67,25.55,2.46c0,0,6.67,3.69,9.57,13.44
				c3.42,12.03-3.6,27.84-3.6,27.84l-3.07,5.97C902.38,514.68,880.43,529.43,852.33,532.42z"/>
		</g>
	</g>
</g>
</svg>
