<?xml version="1.0" encoding="utf-8"?>
<!-- Generator: Adobe Illustrator 24.0.2, SVG Export Plug-In . SVG Version: 6.00 Build 0)  -->
<svg version="1.1" id="Layer_1" xmlns="http://www.w3.org/2000/svg" xmlns:xlink="http://www.w3.org/1999/xlink" x="0px" y="0px"
	 viewBox="0 0 1200 1182" style="enable-background:new 0 0 1200 1182;" xml:space="preserve">
<style type="text/css">
	.st0{fill:#FFFFFF;}
</style>
<g id="JiOWut.tif">
	<g>
		<g>
			<path class="st0" d="M699.3,780.1c-0.73,10.68-3.14,20.52-11.07,28.06c-13.64,12.99-36.14,10.12-46.31-5.7
				c-8.52-13.25-8.17-33.34,1.05-46.13c7.16-9.93,17.16-13.6,29.07-11.88c12.81,1.85,20.89,9.52,24.65,21.65
				C698.08,770.61,698.46,775.43,699.3,780.1z"/>
		</g>
		<g>
			<path class="st0" d="M294.63,286c0,203.56,0,406.85,0,610.16c104.23,0,208.17,0,312.56,0c0-58.7,0-117.12,0-176.08
				c9.56,0,18.68-0.05,27.79,0.11c0.67,0.01,1.8,1.5,1.89,2.38c0.26,2.51,0.09,5.07,0.09,8.35c1.4-1.03,2.17-1.51,2.83-2.1
				c22.53-19.93,57.82-14.54,75.67,9.58c17.38,23.49,17.73,58.98,0.62,82.68c-15.65,21.68-44.71,28.94-67.43,16.69
				c-3.89-2.1-7.39-4.9-11.34-7.56c0,22.16,0,44.03,0,65.97c89.38,0,178.42,0,267.59,0c0-203.54,0-406.82,0-610.16
				C701.3,286,497.99,286,294.63,286z M585.32,836.27c0.08,2.91-0.97,4.11-3.78,3.67c-7.93-1.24-16.13-1.62-23.71-3.99
				c-14.14-4.42-22.24-15.03-24.9-29.36c-1.46-7.88-2.21-16.01-2.24-24.03c-0.2-47.01-0.1-94.03-0.11-141.04c0-1.33,0-2.67,0-4.35
				c10.35,0,20.23,0,30.59,0c0,1.88,0,3.49,0,5.1c0,48.38,0,96.76,0.02,145.14c0,1.91,0.04,3.83,0.23,5.73
				c1.13,11.08,7.41,17.1,18.61,17.03c4.49-0.03,5.5,1.46,5.31,5.6C585.02,822.59,585.14,829.44,585.32,836.27z M850.89,839.93
				c-9.43,0.02-18.87-0.24-28.28,0.11c-4.07,0.15-6.44-1.36-8.79-4.42c-10.73-13.98-21.67-27.79-32.55-41.66
				c-0.65-0.83-1.41-1.59-3.04-3.39c-0.89,2.82-2.03,4.8-2.06,6.79c-0.15,12.84-0.16,25.69,0.05,38.53
				c0.06,3.32-0.94,4.21-4.16,4.11c-7.37-0.22-14.76-0.18-22.14-0.02c-2.91,0.06-3.72-0.99-3.72-3.81
				c0.07-65.17,0.05-130.35,0.07-195.52c0-1.71-0.45-3.8,2.35-3.8c8.99-0.01,17.97,0,27.42,0c0,39.81,0,79.06,0,118.31
				c0.33,0.17,0.66,0.35,0.98,0.52c6.65-6.78,13.3-13.57,19.96-20.33c4.31-4.38,8.58-8.81,13.04-13.03c1.17-1.11,2.97-2.15,4.5-2.17
				c11.61-0.19,23.23-0.12,34.84-0.11c0.62,0,1.23,0.18,2.63,0.41c-17.5,16.99-34.48,33.5-51.75,50.26
				c18.49,23.03,36.66,45.66,55.32,68.91C853.48,839.77,852.18,839.93,850.89,839.93z"/>
		</g>
	</g>
</g>
</svg>
