<?xml version="1.0" encoding="utf-8"?>
<!-- Generator: Adobe Illustrator 24.0.2, SVG Export Plug-In . SVG Version: 6.00 Build 0)  -->
<svg version="1.1" id="Layer_1" xmlns="http://www.w3.org/2000/svg" xmlns:xlink="http://www.w3.org/1999/xlink" x="0px" y="0px"
	 viewBox="0 0 1200 668" style="enable-background:new 0 0 1200 668;" xml:space="preserve">
<style type="text/css">
	.st0{fill:#FFFFFF;}
</style>
<g>
	<g id="XMLID_62_">
		<path class="st0" d="M217.29,341.3l0.38-2.68l9.81,0.23l8.96-0.23l0.38,2.68l-6.51,1v31.26c0,9.96-4.06,16.62-19.31,20.15
			c-15.09,0-20.45-8.12-20.45-20.3v-31.1l-6.9-1l0.38-2.68l10.57,0.23l10.49-0.23l0.38,2.68l-6.51,1v32.25
			c0,9.5,4.06,14.94,12.79,14.94c7.97,0,12.41-5.36,12.41-15.17V342.3L217.29,341.3z"/>
	</g>
	<g id="XMLID_60_">
		<path class="st0" d="M248.18,392.17l-8.81,0.23l-0.38-2.68l5.36-0.77v-27.96l-5.36,0.46l-0.38-2.68l9.19-2.37l3.29-0.23l0.38,6.43
			l11.34-7.43c9.81,0,11.42,3.29,11.42,12.49v21.3l5.82,0.77l-0.38,2.68l-8.81-0.23l-7.35,0.23l-0.38-2.68l3.83-0.77v-21.91
			c0-3.98-1.76-5.75-5.06-5.75c-2.68,0-5.36,1.69-7.97,3.45l-2.3,1.53v22.68l4.21,0.77l-0.38,2.68L248.18,392.17z"/>
	</g>
	<g id="XMLID_57_">
		<path class="st0" d="M294.61,392.17l-8.81,0.23l-0.38-2.68l5.36-0.77v-27.96l-5.36,0.46l-0.38-2.68l9.19-2.37l3.83-0.31v32.87
			l5.75,0.77l-0.38,2.68L294.61,392.17z M290.78,339.46l5.52-0.38l2.14,0.38l0.38,4.29l-0.84,3.68l-5.44,0.46l-2.07-0.46l-0.46-4.29
			L290.78,339.46z"/>
	</g>
	<g id="XMLID_55_">
		<path class="st0" d="M326.54,387.42l9.27-27.73l-3.52-0.77l0.38-2.68l6.74,0.23l6.36-0.23l0.38,2.68l-4.9,0.77l-12.56,31.49
			l-5.59,2.3l-13.33-33.79l-4.75-0.77l0.38-2.68l8.81,0.23l8.04-0.23l0.38,2.68l-5.06,0.77l8.35,22.45L326.54,387.42z"/>
	</g>
	<g id="XMLID_52_">
		<path class="st0" d="M355.39,372.79c0,8.73,4.67,14.94,12.72,14.94c3.06,0,6.74-1.45,9.57-3.22l1.23,2.91
			c-3.68,2.53-8.5,4.67-13.41,6.05c-9.27,0-17.62-6.59-17.62-18.62c0-11.34,6.82-17.39,17.31-19.69c10.11,0,13.56,6.36,13.56,14.4
			v3.22H355.39z M370.79,368.96c0-5.9-1.15-9.96-7.05-9.96c-4.67,0-7.66,4.37-8.27,10.73L370.79,368.96z"/>
	</g>
	<g id="XMLID_50_">
		<path class="st0" d="M396.25,366.28l8.73-10.73h6.13v7.66h-5.67c-1.84,0.38-5.21,2.91-7.28,5.44l-1.53,1.84v18.23l8.04,0.77
			l-0.38,2.91l-11.11-0.23l-8.58,0.23l-0.38-2.68l5.36-0.77v-27.96l-5.36,0.46l-0.38-2.68l9.19-2.37l3.06-0.23L396.25,366.28z"/>
	</g>
	<g id="XMLID_48_">
		<path class="st0" d="M435.8,360.61c-0.76-0.46-3.06-1.69-5.82-1.69c-2.99,0-5.82,1.61-5.82,4.52c0,2.45,1.91,3.98,5.36,5.75
			l5.9,2.99c5.13,2.61,7.2,5.52,7.2,9.88c0,6.89-5.59,9.5-14.4,11.42c-4.67,0-9.65-2.3-11.65-3.45l-1.46-8.66h4.9l2.61,6.36
			c1.61,1.07,3.83,1.92,6.28,1.92c4.06,0,6.13-2.6,6.13-5.82c0-2.99-1.61-4.29-5.59-6.36l-6.05-3.14c-3.29-1.69-6.43-4.6-6.43-8.89
			c0-5.36,4.98-8.35,13.87-10.27c4.14,0,8.58,1.84,10.8,3.45v7.66h-4.06L435.8,360.61z"/>
	</g>
	<g id="XMLID_45_">
		<path class="st0" d="M457.48,392.17l-8.81,0.23l-0.38-2.68l5.36-0.77v-27.96l-5.36,0.46l-0.38-2.68l9.19-2.37l3.83-0.31v32.87
			l5.75,0.77l-0.38,2.68L457.48,392.17z M453.65,339.46l5.52-0.38l2.14,0.38l0.38,4.29l-0.84,3.68l-5.44,0.46l-2.07-0.46l-0.46-4.29
			L453.65,339.46z"/>
	</g>
	<g id="XMLID_44_">
		<path class="st0" d="M467.88,360.68v-1.3l2.68-2.68h4.98v-4.98l4.98-4.98h1.99v10.5h11.57v3.45h-11.49v22.45
			c0,2.22,0.84,4.6,4.06,4.6c2.22,0,3.91-0.77,6.05-1.84l1.3,2.61l-8.96,4.98c-8.58,0-9.73-3.07-9.73-9.96v-22.83H467.88z"/>
	</g>
	<g id="XMLID_43_">
		<path class="st0" d="M504.07,410.33v-7.66h6.59l7.58-11.57l-3.06,0.92l-12.49-32.33l-4.75-0.77l0.38-2.68l8.81,0.23l8.04-0.23
			l0.38,2.68l-5.06,0.77l8.12,22.45l0.61,5.29l9.12-27.73l-3.52-0.77l0.38-2.68l6.74,0.23l6.36-0.23l0.38,2.68l-4.9,0.77
			l-12.03,31.33l-8.58,19.31H504.07z"/>
	</g>
	<g id="XMLID_42_">
		<path class="st0" d="M598.39,373.56c0,11.41-6.97,18-18.85,19.92c-10.19,0-17.08-7.89-17.08-18.31c0-11.49,6.97-18,18.84-19.99
			C591.49,355.17,598.39,363.14,598.39,373.56z M581.46,389.72c6.13,0,9.27-6.28,9.27-14.56c0-9.73-4.67-16.24-11.34-16.24
			c-6.21,0-9.27,6.28-9.27,14.63C570.12,382.29,574.64,389.72,581.46,389.72z"/>
	</g>
	<g id="XMLID_41_">
		<path class="st0" d="M616.09,357.08h9.57v3.6h-9.57v28.27l8.81,0.54l-0.38,2.91l-11.87-0.23l-8.81,0.23l-0.38-2.68l5.36-0.77
			v-28.27h-6.74v-1.3l2.3-2.68h4.44v-0.77c0-4.6,1.46-7.58,4.21-10.73l6.44-7.28h9.65v6.13h-9.96l-1.46,2.07
			c-1.07,1.46-1.61,3.68-1.61,8.66V357.08z"/>
	</g>
	<g id="XMLID_40_">
		<path class="st0" d="M276,470.67c0-30.23,21.18-50.85,52.11-50.85c13.1,0,24.24,3.48,34.27,10.87l-7.66,10.87
			c-8.22-5.85-17.28-8.92-27.03-8.92c-22.43,0-38.03,15.46-38.03,38.03c0,22.57,15.6,38.03,38.03,38.03
			c9.75,0,18.81-3.06,27.03-8.92l7.66,10.87c-10.03,7.38-21.18,10.87-34.27,10.87C297.17,521.52,276,500.91,276,470.67z"/>
	</g>
	<g id="XMLID_39_">
		<path class="st0" d="M388.7,519.44h-12.54v-97.52h12.54V519.44z"/>
	</g>
	<g id="XMLID_38_">
		<path class="st0" d="M471.46,483.63c3.34,3.34,6.41,7.8,7.66,10.87l0.56-0.14c-0.84-3.76-1.39-9.47-1.39-17.55v-54.89h12.54v98.92
			h-1.11l-59.49-63.11c-3.2-3.34-6.27-7.8-7.66-10.87l-0.42,0.14c0.84,3.76,1.25,9.47,1.25,17.41v55.03h-12.54v-98.92h1.25
			L471.46,483.63z"/>
	</g>
	<g id="XMLID_37_">
		<path class="st0" d="M507.7,470.67c0-30.23,21.18-50.85,52.11-50.85c13.1,0,24.24,3.48,34.27,10.87l-7.66,10.87
			c-8.22-5.85-17.27-8.92-27.03-8.92c-22.43,0-38.03,15.46-38.03,38.03c0,22.57,15.6,38.03,38.03,38.03
			c9.75,0,18.81-3.06,27.03-8.92l7.66,10.87c-10.03,7.38-21.18,10.87-34.27,10.87C528.88,521.52,507.7,500.91,507.7,470.67z"/>
	</g>
	<g id="XMLID_36_">
		<path class="st0" d="M620.41,519.44h-12.54v-97.52h12.54V519.44z"/>
	</g>
	<g id="XMLID_35_">
		<path class="st0" d="M703.17,483.63c3.34,3.34,6.41,7.8,7.66,10.87l0.56-0.14c-0.84-3.76-1.39-9.47-1.39-17.55v-54.89h12.54v98.92
			h-1.12l-59.49-63.11c-3.2-3.34-6.27-7.8-7.66-10.87l-0.42,0.14c0.84,3.76,1.25,9.47,1.25,17.41v55.03h-12.54v-98.92h1.25
			L703.17,483.63z"/>
	</g>
	<g id="XMLID_34_">
		<path class="st0" d="M805.59,483.63c3.34,3.34,6.41,7.8,7.66,10.87l0.56-0.14c-0.84-3.76-1.39-9.47-1.39-17.55v-54.89h12.54v98.92
			h-1.12l-59.49-63.11c-3.2-3.34-6.27-7.8-7.66-10.87l-0.42,0.14c0.84,3.76,1.25,9.47,1.25,17.41v55.03h-12.54v-98.92h1.25
			L805.59,483.63z"/>
	</g>
	<g id="XMLID_33_">
		<path class="st0" d="M882.82,419.82h1.39l45.56,99.61H915.7l-12.12-27.31h-40.12l-12.12,27.31h-14.07L882.82,419.82z
			 M874.74,481.4h17.55c4.32,0,6.55,0.14,7.8,0.28l0.14-0.14c-1.11-1.39-2.51-3.62-4.32-7.94l-8.64-20.34
			c-1.95-5.02-3.2-8.92-3.48-11.42h-0.56c-0.28,2.51-1.53,6.41-3.48,11.42l-8.64,20.34c-1.81,4.32-3.2,6.55-4.32,7.94l0.14,0.14
			C868.19,481.54,870.42,481.4,874.74,481.4z"/>
	</g>
	<g id="XMLID_32_">
		<path class="st0" d="M991.36,433.89h-24.94c-1.67,0-2.65,0-3.62-0.42l-0.14,0.28c0.28,0.7,0.42,1.81,0.42,3.34v82.34h-12.54V437.1
			c0-1.53,0.14-2.65,0.42-3.34l-0.28-0.28c-0.97,0.42-1.81,0.42-3.48,0.42h-25.08v-11.98h69.24V433.89z"/>
	</g>
	<g id="XMLID_31_">
		<path class="st0" d="M1016,519.44h-12.54v-97.52H1016V519.44z"/>
	</g>
	<g id="XMLID_14_">
		<rect x="778.09" y="147.39" class="st0" width="46.83" height="13.66"/>
	</g>
	<g id="XMLID_13_">
		<path class="st0" d="M743.49,280.1c0-37.29,21.8-67.44,54-84.35v-18.33c-46.28,15.16-79.47,54.28-79.47,102.67
			c0,23.93,6.24,42.63,17.11,59.37c-28.62-5.03-40.95-24.99-40.95-59.37V147.32h-0.03h-51.32v13.67h24.55v119.1
			c0,47.72,31.1,72.5,78.45,73.29c18.11,20.13,43.73,34.18,72.84,38.33c2.3,0.34,4.49,0.58,6.3,0.74l0-13.57
			c-2.34-0.4-3.97-0.79-3.97-0.79C776.39,366.73,743.49,328.77,743.49,280.1z"/>
	</g>
	<g id="XMLID_12_">
		<path class="st0" d="M851.77,280.1v-96.08c31.67,0,50.67,18.84,51.69,40.43l11.78,2.32l8.25-48.07l-14.02-2.73l-1.71,10.26
			c-25.3-12.73-46.53-15.03-67.62-15.03c-5.17,0-10.26,0.31-15.27,0.91l0.1,108c0,21.01-3.03,33.4-13.79,46.62
			c-11.83-13.05-13.7-27.87-13.7-46.62c0-9.99,0.02-57.51,0.02-57.51c-15.7,15.18-25.51,34.05-25.51,57.51
			c0,49.09,37.91,87.43,84.17,87.43c15.88,0,34.19-3.88,47.55-12.97l-3.37-5.03c-18.04,9.2-54.65,11.35-77.02-9.59
			C842.23,325.97,851.77,308.11,851.77,280.1z"/>
	</g>
</g>
</svg>
