<?xml version="1.0" encoding="utf-8"?>
<!-- Generator: Adobe Illustrator 24.0.2, SVG Export Plug-In . SVG Version: 6.00 Build 0)  -->
<svg version="1.1" id="Layer_1" xmlns="http://www.w3.org/2000/svg" xmlns:xlink="http://www.w3.org/1999/xlink" x="0px" y="0px"
	 viewBox="0 0 1200 668" style="enable-background:new 0 0 1200 668;" xml:space="preserve">
<style type="text/css">
	.st0{fill:#FFFFFF;}
</style>
<g>
	<g>
		<g>
			<path class="st0" d="M239.98,411.76c0-0.43,0.35-0.82,0.82-0.82h9.66c5.22,0,8.97,3.45,8.97,7.98c0,3.32-2.46,5.69-4.49,6.86
				c2.29,0.95,5.39,3.06,5.39,7.03c0,4.83-3.97,8.32-9.4,8.32H240.8c-0.48,0-0.82-0.39-0.82-0.82V411.76z M250.89,437.16
				c2.63,0,4.66-2.03,4.66-4.7c0-2.63-2.5-4.53-5.3-4.53h-5.91v9.23H250.89z M250.2,424.05c2.76,0,4.44-2.03,4.44-4.62
				c0-2.63-1.68-4.44-4.44-4.44h-5.82v9.06H250.2z"/>
		</g>
		<g>
			<path class="st0" d="M278.87,411.76c0-0.43,0.35-0.82,0.82-0.82h11.73c5.17,0,9.4,4.1,9.4,9.23c0,3.97-2.63,7.24-6.38,8.76
				l5.91,10.95c0.3,0.56,0,1.25-0.73,1.25h-3.36c-0.35,0-0.6-0.21-0.69-0.39l-5.74-11.43h-6.51v11c0,0.43-0.39,0.82-0.82,0.82h-2.8
				c-0.48,0-0.82-0.39-0.82-0.82V411.76z M291.07,425.6c2.8,0,5.26-2.37,5.26-5.35c0-2.8-2.46-5.13-5.26-5.13h-7.68v10.48H291.07z"
				/>
		</g>
		<g>
			<path class="st0" d="M315.56,440.01l13.24-29.02c0.13-0.26,0.52-0.48,0.73-0.48h0.43c0.22,0,0.6,0.22,0.73,0.48l13.15,29.02
				c0.26,0.56-0.09,1.12-0.73,1.12h-2.72c-0.52,0-0.82-0.26-0.99-0.65l-2.67-5.91h-14.1c-0.86,1.98-1.77,3.93-2.63,5.91
				c-0.13,0.3-0.47,0.65-0.99,0.65h-2.72C315.65,441.13,315.3,440.57,315.56,440.01z M335.1,430.86l-5.3-11.82h-0.22l-5.26,11.82
				H335.1z"/>
		</g>
		<g>
			<path class="st0" d="M360.23,411.29c0-0.43,0.39-0.78,0.82-0.78h1.08l18.72,21.65h0.04v-20.4c0-0.43,0.35-0.82,0.82-0.82h2.76
				c0.43,0,0.82,0.39,0.82,0.82v29.02c0,0.43-0.39,0.78-0.82,0.78h-1.12l-18.72-22.25h-0.04v21c0,0.43-0.35,0.82-0.82,0.82h-2.71
				c-0.43,0-0.82-0.39-0.82-0.82V411.29z"/>
		</g>
		<g>
			<path class="st0" d="M405.72,411.76c0-0.43,0.35-0.82,0.78-0.82h9.92c8.32,0,15.14,6.77,15.14,15.05
				c0,8.37-6.81,15.14-15.14,15.14h-9.92c-0.43,0-0.78-0.39-0.78-0.82V411.76z M415.81,437.03c6.34,0,10.95-4.66,10.95-11.04
				c0-6.34-4.61-10.95-10.95-10.95h-5.69v21.99H415.81z"/>
		</g>
		<g>
			<path class="st0" d="M484.76,410.51c4.36,0,7.5,1.47,10.44,4.01c0.39,0.34,0.39,0.86,0.04,1.21l-1.9,1.94
				c-0.3,0.39-0.69,0.39-1.08,0c-2.03-1.77-4.79-2.89-7.46-2.89c-6.17,0-10.82,5.17-10.82,11.21c0,6.04,4.7,11.17,10.87,11.17
				c3.15,0,5.35-1.25,7.42-2.85c0.39-0.3,0.78-0.26,1.03-0.04l1.98,1.94c0.35,0.3,0.26,0.86-0.04,1.16
				c-2.93,2.85-6.64,4.18-10.48,4.18c-8.62,0-15.57-6.85-15.57-15.48C469.19,417.45,476.14,410.51,484.76,410.51z"/>
		</g>
		<g>
			<path class="st0" d="M526.63,410.51c8.62,0,15.52,6.94,15.52,15.57c0,8.62-6.9,15.48-15.52,15.48c-8.62,0-15.48-6.85-15.48-15.48
				C511.15,417.45,518,410.51,526.63,410.51z M526.63,437.25c6.17,0,11.21-5,11.21-11.17c0-6.12-5.04-11.26-11.21-11.26
				c-6.12,0-11.17,5.13-11.17,11.26C515.46,432.24,520.51,437.25,526.63,437.25z"/>
		</g>
		<g>
			<path class="st0" d="M560.39,411.76c0-0.43,0.35-0.82,0.82-0.82h2.85c0.43,0,0.82,0.39,0.82,0.82v25.36h11.69
				c0.47,0,0.82,0.39,0.82,0.82v2.37c0,0.43-0.35,0.82-0.82,0.82h-15.35c-0.47,0-0.82-0.39-0.82-0.82V411.76z"/>
		</g>
		<g>
			<path class="st0" d="M593.98,411.76c0-0.43,0.35-0.82,0.82-0.82h2.85c0.43,0,0.82,0.39,0.82,0.82v25.36h11.69
				c0.47,0,0.82,0.39,0.82,0.82v2.37c0,0.43-0.35,0.82-0.82,0.82H594.8c-0.48,0-0.82-0.39-0.82-0.82V411.76z"/>
		</g>
		<g>
			<path class="st0" d="M624.85,440.01l13.24-29.02c0.13-0.26,0.52-0.48,0.73-0.48h0.43c0.22,0,0.6,0.22,0.73,0.48l13.15,29.02
				c0.26,0.56-0.09,1.12-0.73,1.12h-2.72c-0.52,0-0.82-0.26-0.99-0.65l-2.67-5.91h-14.1c-0.86,1.98-1.77,3.93-2.63,5.91
				c-0.13,0.3-0.47,0.65-0.99,0.65h-2.72C624.94,441.13,624.59,440.57,624.85,440.01z M644.38,430.86l-5.3-11.82h-0.22l-5.26,11.82
				H644.38z"/>
		</g>
		<g>
			<path class="st0" d="M669.52,411.76c0-0.43,0.35-0.82,0.82-0.82H680c5.22,0,8.97,3.45,8.97,7.98c0,3.32-2.46,5.69-4.49,6.86
				c2.29,0.95,5.39,3.06,5.39,7.03c0,4.83-3.97,8.32-9.4,8.32h-10.13c-0.48,0-0.82-0.39-0.82-0.82V411.76z M680.43,437.16
				c2.63,0,4.66-2.03,4.66-4.7c0-2.63-2.5-4.53-5.3-4.53h-5.91v9.23H680.43z M679.74,424.05c2.76,0,4.44-2.03,4.44-4.62
				c0-2.63-1.68-4.44-4.44-4.44h-5.82v9.06H679.74z"/>
		</g>
		<g>
			<path class="st0" d="M721.7,410.51c8.62,0,15.52,6.94,15.52,15.57c0,8.62-6.9,15.48-15.52,15.48c-8.62,0-15.48-6.85-15.48-15.48
				C706.21,417.45,713.07,410.51,721.7,410.51z M721.7,437.25c6.17,0,11.21-5,11.21-11.17c0-6.12-5.04-11.26-11.21-11.26
				c-6.12,0-11.17,5.13-11.17,11.26C710.52,432.24,715.57,437.25,721.7,437.25z"/>
		</g>
		<g>
			<path class="st0" d="M755.45,411.76c0-0.43,0.34-0.82,0.82-0.82H768c5.18,0,9.4,4.1,9.4,9.23c0,3.97-2.63,7.24-6.38,8.76
				l5.91,10.95c0.3,0.56,0,1.25-0.73,1.25h-3.36c-0.34,0-0.6-0.21-0.69-0.39l-5.73-11.43h-6.51v11c0,0.43-0.39,0.82-0.82,0.82h-2.8
				c-0.47,0-0.82-0.39-0.82-0.82V411.76z M767.66,425.6c2.8,0,5.26-2.37,5.26-5.35c0-2.8-2.46-5.13-5.26-5.13h-7.68v10.48H767.66z"
				/>
		</g>
		<g>
			<path class="st0" d="M792.14,440.01l13.24-29.02c0.13-0.26,0.52-0.48,0.73-0.48h0.43c0.22,0,0.6,0.22,0.73,0.48l13.15,29.02
				c0.26,0.56-0.09,1.12-0.73,1.12h-2.72c-0.52,0-0.82-0.26-0.99-0.65l-2.67-5.91h-14.1c-0.86,1.98-1.77,3.93-2.63,5.91
				c-0.13,0.3-0.47,0.65-0.99,0.65h-2.71C792.23,441.13,791.89,440.57,792.14,440.01z M811.68,430.86l-5.3-11.82h-0.22l-5.26,11.82
				H811.68z"/>
		</g>
		<g>
			<path class="st0" d="M839.36,414.99h-7.03c-0.48,0-0.82-0.39-0.82-0.82v-2.41c0-0.43,0.34-0.82,0.82-0.82h18.54
				c0.47,0,0.82,0.39,0.82,0.82v2.41c0,0.43-0.34,0.82-0.82,0.82h-7.03v25.32c0,0.43-0.39,0.82-0.82,0.82h-2.85
				c-0.43,0-0.82-0.39-0.82-0.82V414.99z"/>
		</g>
		<g>
			<path class="st0" d="M868.42,411.76c0-0.43,0.39-0.82,0.82-0.82h2.85c0.43,0,0.82,0.39,0.82,0.82v28.55
				c0,0.43-0.39,0.82-0.82,0.82h-2.85c-0.43,0-0.82-0.39-0.82-0.82V411.76z"/>
		</g>
		<g>
			<path class="st0" d="M889.33,412.06c-0.26-0.56,0.09-1.12,0.73-1.12h3.06c0.34,0,0.64,0.26,0.73,0.47l9.49,21.35h0.26l9.49-21.35
				c0.09-0.22,0.34-0.47,0.73-0.47h3.06c0.65,0,0.99,0.56,0.73,1.12l-13.24,29.02c-0.13,0.26-0.39,0.47-0.73,0.47h-0.43
				c-0.3,0-0.6-0.21-0.73-0.47L889.33,412.06z"/>
		</g>
		<g>
			<path class="st0" d="M934.05,411.76c0-0.43,0.35-0.82,0.82-0.82h17.25c0.47,0,0.82,0.39,0.82,0.82v2.41
				c0,0.43-0.34,0.82-0.82,0.82h-13.63v8.8H950c0.43,0,0.82,0.39,0.82,0.82v2.41c0,0.48-0.39,0.82-0.82,0.82h-11.51v9.27h13.63
				c0.47,0,0.82,0.39,0.82,0.82v2.37c0,0.43-0.34,0.82-0.82,0.82h-17.25c-0.48,0-0.82-0.39-0.82-0.82V411.76z"/>
		</g>
	</g>
	<g>
		<g>
			<path class="st0" d="M141,343.41v-0.68c1.13-0.13,2.76-0.54,3.88-0.8c2.58-0.67,4.37-1.88,5.34-4.16
				c1.78-4.3,2.1-12.62,2.1-21.07v-34.51c0-8.74-0.16-17.33-2.1-21.48c-1.13-2.42-2.92-3.37-5.18-4.03
				c-1.12-0.41-2.91-0.67-4.04-0.8v-0.68h33.49v0.68c-1.46,0.26-2.74,0.4-4.37,0.94c-1.93,0.68-3.89,1.75-4.85,3.9
				c-1.78,4.28-1.95,12.74-1.95,21.48v34.51c0,8.46,0.17,17.73,1.95,21.35c0.96,2.01,2.74,3.22,4.68,3.76
				c1.94,0.53,3.24,0.8,4.53,0.93v0.68H141z"/>
		</g>
		<path class="st0" d="M305.2,256.39c-2.11,0.54-3.88,1.76-5.18,4.17c-1.29,2.41-2.11,5.49-2.11,11.94v72.25h-2.11l-62.77-77.21
			h-0.49v58.54c0,6.45,0.8,9.54,1.94,11.96c1.13,2.29,3.39,3.49,5.5,4.15c1.3,0.41,2.43,0.55,4.04,0.68v0.54h-25.57v-0.54
			c1.62-0.13,2.92-0.28,4.21-0.68c2.11-0.66,4.37-2.14,5.35-4.15c1.13-2.41,2.26-5.51,2.26-11.96v-48.74
			c0-8.46-1.46-12.62-2.92-15.04c-1.45-2.42-4.21-4.43-6.8-5.37c-1.77-0.67-2.75-0.8-4.19-1.08v-0.67h20.38l58.57,72.65h0.32v-55.33
			c0-6.45-0.81-9.53-2.11-11.94c-1.13-2.02-3.06-3.23-5.34-4.03c-1.12-0.41-2.75-0.68-4.04-0.8v-0.55h25.08v0.55
			C307.62,255.86,306.49,255.99,305.2,256.39"/>
		<g>
			<path class="st0" d="M428.08,276c-1.46-2.68-5.99-10.87-14.08-15.04c-5.18-2.69-9.71-4.03-16.82-4.03h-9.88v59.76
				c0,8.46,0.33,17.72,2.1,21.35c1.13,2.29,2.92,3.36,5.5,4.02c1.14,0.27,2.11,0.41,3.89,0.68v0.67h-34.15v-0.67
				c1.47-0.27,2.6-0.41,3.89-0.8c2.27-0.68,4.37-1.89,5.35-3.9c2.09-4.29,2.43-12.89,2.43-21.35v-59.76h-10.04
				c-6.95,0-12.12,1.48-17.31,4.44c-7.27,4.16-11.8,11.68-13.43,14.63h-0.8l5.82-20.8h82.51l5.83,20.8H428.08z"/>
		</g>
		<g>
			<path class="st0" d="M488.97,256.93c-3.72,0-7.12,0.4-8.75,2.69c-1.61,2.01-1.61,5.36-1.61,10.6v27h12.13
				c14.73,0,18.45-1.88,22.5-5.78c3.22-3.09,4.69-7.12,4.69-14.5c0-12.09-6.15-20.01-23.61-20.01H488.97z M523.11,343.41
				c-3.89-3.36-6.81-7.93-8.42-18c-1.29-8.19-2.43-17.73-7.11-22.42c-3.72-3.62-9.39-4.03-18.93-4.03h-10.03v17.86
				c0,8.46,0.33,17.19,1.94,21.47c0.97,1.89,2.91,3.37,5.5,4.03c1.45,0.41,3.72,0.55,4.85,0.55v0.54h-34.61v-0.54
				c0.97,0,2.75-0.14,4.04-0.55c2.43-0.8,4.37-2.14,5.17-4.03c1.62-4.15,2.11-13.02,2.11-21.47v-35.18c0-8.6-0.32-17.06-2.11-21.34
				c-0.97-1.9-2.91-3.23-5.34-4.04c-0.96-0.27-2.75-0.54-3.87-0.54v-0.54h40.44c16.98,0,33.49,6.45,33.49,21.48
				c0,12.09-11,20.01-26.21,21.35v0.41c4.7,0.54,8.42,1.34,12.3,3.63c5.02,2.95,7.13,8.73,9.4,18.26c2.9,12.08,6.14,17.32,9.7,19.47
				c2.91,1.74,5.66,2.54,8.25,2.94v0.68H523.11z"/>
		</g>
		<g>
			<path class="st0" d="M579.71,343.41v-0.68c1.14-0.13,2.75-0.54,3.88-0.8c2.59-0.67,4.37-1.88,5.34-4.16
				c1.79-4.3,2.1-12.62,2.1-21.07v-34.51c0-8.74-0.16-17.33-2.1-21.48c-1.13-2.42-2.91-3.37-5.17-4.03
				c-1.13-0.41-2.91-0.67-4.05-0.8v-0.68h33.49v0.68c-1.46,0.26-2.74,0.4-4.36,0.94c-1.94,0.68-3.89,1.75-4.85,3.9
				c-1.79,4.28-1.94,12.74-1.94,21.48v34.51c0,8.46,0.15,17.73,1.94,21.35c0.96,2.01,2.74,3.22,4.68,3.76
				c1.94,0.53,3.23,0.8,4.53,0.93v0.68H579.71z"/>
		</g>
		<path class="st0" d="M743.78,256.39c-2.11,0.54-3.87,1.76-5.17,4.17c-1.29,2.41-2.11,5.49-2.11,11.94v72.25h-2.11l-62.78-77.21
			h-0.49v58.54c0,6.45,0.81,9.54,1.95,11.96c1.13,2.29,3.39,3.49,5.5,4.15c1.3,0.41,2.43,0.55,4.05,0.68v0.54h-25.57v-0.54
			c1.61-0.13,2.91-0.28,4.21-0.68c2.1-0.66,4.36-2.14,5.34-4.15c1.13-2.41,2.26-5.51,2.26-11.96v-48.74
			c0-8.46-1.45-12.62-2.91-15.04c-1.46-2.42-4.19-4.43-6.8-5.37c-1.78-0.67-2.75-0.8-4.21-1.08v-0.67h20.39l58.56,72.65h0.33v-55.33
			c0-6.45-0.8-9.53-2.11-11.94c-1.13-2.02-3.06-3.23-5.34-4.03c-1.13-0.41-2.75-0.68-4.04-0.8v-0.55h25.08v0.55
			C746.21,255.86,745.07,255.99,743.78,256.39"/>
		<g>
			<path class="st0" d="M859.54,256.66L797.09,341h18.44c13.43,0,21.51-0.14,28.79-3.36c9.22-4.03,12.79-8.73,17.31-15.44h0.97
				l-7.29,21.22H784.3v-1.48l61.48-84.06h-22.66c-10.19,0-18.12,1.08-24.25,4.44c-5.35,2.95-8.91,7.65-13.43,13.56h-0.98l7.61-20.68
				h67.47V256.66z"/>
		</g>
		<g>
			<path class="st0" d="M902.08,343.41v-0.68c1.11-0.13,2.74-0.54,3.87-0.8c2.6-0.67,4.38-1.88,5.35-4.16
				c1.79-4.3,2.1-12.62,2.1-21.07v-34.51c0-8.74-0.16-17.33-2.1-21.48c-1.12-2.42-2.91-3.37-5.17-4.03
				c-1.13-0.41-2.93-0.67-4.04-0.8v-0.68h33.48v0.68c-1.46,0.26-2.75,0.4-4.37,0.94c-1.93,0.68-3.89,1.75-4.85,3.9
				c-1.77,4.28-1.93,12.74-1.93,21.48v34.51c0,8.46,0.15,17.73,1.93,21.35c0.96,2.01,2.76,3.22,4.69,3.76
				c1.94,0.53,3.24,0.8,4.53,0.93v0.68H902.08z"/>
		</g>
		<path class="st0" d="M1019.83,345.29c-26.04,0-47.24-16.91-47.24-46.06c0-28.32,22.16-45.78,47.72-45.78
			c14.88,0,27.02,5.1,33.17,9.67h0.48l2.1-4.71h1.46v28.21h-1.13c-2.26-7.8-4.53-12.77-7.76-17.33
			c-6.47-8.99-15.37-13.97-28.48-13.97c-7.77,0-17,2.16-24.27,10.75c-5.99,6.98-10.86,17.99-10.86,33.16
			c0,20.55,9.4,31.57,17.49,36.93c6.79,4.44,14.4,5.24,20.54,5.24c12.46,0,28.16-4.29,34.95-27.52l1.62,0.4
			C1055.08,333.34,1039.73,345.29,1019.83,345.29"/>
		<g>
			<polygon class="st0" points="794.05,226.19 790.95,230.36 790.95,231.85 856.2,231.85 859.32,227.68 859.32,226.19 			"/>
		</g>
	</g>
</g>
</svg>
